<svg xmlns="http://www.w3.org/2000/svg" viewBox="0 -960 960 960" fill="currentColor" fill-rule="evenodd">
  <g transform="translate(0,-960) scale(0.384)">
    <path d="M2152.194 2018.375C1140.198 2500 512.143 2097.038 110.104 1852.288c-24.878-15.425-67.162 3.606-30.475 45.746 133.939 162.404 572.886 553.845 1145.839 553.845 573.347 0 914.436-312.845 957.105-367.419 42.38-54.112 12.444-83.962-30.388-66.085h.01Zm284.217-156.961c-27.176-35.389-165.25-41.986-252.145-31.311-87.03 10.367-217.661 63.556-206.303 95.492 5.828 11.963 17.723 6.597 77.509 1.221 59.949-5.981 227.893-27.176 262.887 18.57 35.158 46.063-53.564 265.493-69.768 300.882-15.656 35.389 5.981 44.515 35.389 20.945 29.003-23.561 81.51-84.577 116.745-170.924 34.995-86.818 56.334-207.929 35.677-234.874h.01Z"/>
    <path d="M1471.738 1035.623c0 126.371 3.193 231.758-60.68 343.983-51.554 91.251-133.218 147.364-224.459 147.364-124.553 0-197.091-94.896-197.091-234.951 0-276.475 247.722-326.654 482.231-326.654zm327.106 790.633c-21.445 19.156-52.468 20.531-76.644 7.751-107.667-89.415-126.832-130.929-186.138-216.247-177.925 181.579-303.844 235.865-534.689 235.865-272.821 0-485.423-168.347-485.423-505.493 0-263.233 142.805-442.534 345.81-530.121 176.108-77.567 422.012-91.251 609.977-112.687v-41.976c0-77.105 5.924-168.347-39.235-234.951-39.697-59.767-115.427-84.404-182.041-84.404-123.63 0-234.038 63.411-260.954 194.802-5.481 29.205-26.917 57.949-56.112 59.315l-314.797-33.754c-26.455-5.943-55.651-27.378-48.352-67.989C642.783 114.975 987.219 0 1295.621 0c157.855 0 364.063 41.976 488.616 161.51 157.855 147.354 142.796 343.983 142.796 557.951v505.493c0 151.922 62.959 218.526 122.265 300.651 20.983 29.196 25.551 64.335-.914 86.222-66.152 55.199-183.858 157.855-248.635 215.343l-.914-.914"/>
  </g>
</svg>
