<svg xmlns="http://www.w3.org/2000/svg" fill="currentColor" viewBox="0 0 235 40"><path d="M5.864 5.632v12.473h17.023v5.474H5.864v15.526H-.002V0h24.408v5.632zm19.952 20.263c0-8.369 6.233-14.105 14.195-14.105 8.014 0 14.194 5.736 14.194 14.105S48.025 40 39.801 40c-7.752 0-13.985-5.737-13.985-14.105m22.523 0c0-5.474-3.457-8.79-8.328-8.79-4.924 0-8.328 3.264-8.328 8.79 0 5.474 3.457 8.79 8.328 8.79 4.923 0 8.328-3.316 8.328-8.79m11.223-13.419h22.994v26.631h-5.657V17.844H65.1v21.263h-5.657V12.476h.052zM97.63 17.84v15.84h7.438v5.369H91.974V17.84H86.63v-5.37h5.343V2.893h5.657v9.579h8.275v5.368zm11.626 7.951h5.5v13.316h-5.5zm5.552-13.315h5.5V25.79h-5.5zm5.5 13.315h5.5l-5.5 13.316h-5.5zm11.052-13.315h5.499L131.36 25.79h-5.5l5.5-13.315zm0 13.315h5.499v13.316h-5.499zm5.552-13.315h5.499V25.79h-5.499zm5.499 13.315h5.5l-5.5 13.316h-5.499zm11.052-13.315h5.5l-5.5 13.315h-5.499zm19.851 22.261c3.562 0 5.867-1.21 7.857-3.579l4.243 3.158c-3.248 3.842-7.124 5.684-12.1 5.684-8.223 0-13.775-5.684-13.775-14.105 0-7.947 5.343-14.105 13.933-14.105 7.594 0 13.304 5.684 13.304 14v2.631h-21.318c.733 3.842 3.666 6.316 7.856 6.316m-7.909-11.053h15.452c-.629-4.158-3.719-6.631-7.857-6.631-4.242 0-6.861 2.473-7.595 6.631m26.666-11.208h15.033v5.368h-9.428v21.263h-5.657V12.476zM219.983 28h-3.823v11.105h-5.657V0h5.657v22.737h3.823l7.49-10.263h6.548l-9.428 12.684 9.689 13.947h-6.652z"/></svg>
