<svg xmlns="http://www.w3.org/2000/svg" viewBox="0 0 121 42" role="img" aria-labelledby="kirby-logo-title" fill="currentColor">
  <title id="kirby-logo-title">Kirby</title>
  <path d="m18 0 18 10.498v21.004L18 42 0 31.502V10.498zM2 11.693v18.614l16 9.332 16-9.332V11.693L18 2.36z"/>
  <path d="m26 21-5 2.59V24h5v4H10v-4h5v-.437L10 21v-5l8 4.297L26 16m36.774 7.603-1.97 2.162v5.255H56V11.095h4.803v8.785l1.67-2.531 4.297-6.254h5.94l-6.734 8.813L72.71 31.02h-5.693zM78.58 31.02h-4.626V16.213h4.626zm11.796-10.633-1.519-.11q-2.175 0-2.792 1.369v9.374h-4.611V16.213h4.324l.15 1.902q1.164-2.175 3.244-2.176.738 0 1.286.164zm15.41 3.352q0 3.64-1.506 5.598-1.506 1.956-4.242 1.956-2.26 0-3.64-1.792l-.192 1.519h-4.133V10h4.612v7.403q1.286-1.464 3.325-1.464 2.764 0 4.27 1.984t1.505 5.584v.232zm-4.626-.287q0-2.134-.568-3.045-.568-.91-1.745-.91-1.56 0-2.162 1.19v5.885q.588 1.177 2.19 1.177 1.628 0 2.066-1.587.219-.78.219-2.71m12.425 1.109 2.464-8.348h4.94l-6.035 17.284-.26.63Q113.407 37 110.151 37a7.2 7.2 0 0 1-1.903-.274v-3.298h.602q.972 0 1.485-.28.514-.281.76-1.006l.37-.985-5.146-14.944h4.926zM76.25 15a2.5 2.5 0 1 1 0-5 2.5 2.5 0 0 1 0 5"/>
</svg>
