<svg xmlns="http://www.w3.org/2000/svg" xml:space="preserve" id="Layer_1" x="0" y="0" viewBox="275 250.7 2081.8 386.4" role="img" aria-labelledby="mittwald-title">
  <title id="mittwald-title">Mittwald</title>
  <path fill="currentColor" d="M602.9 358.3c-30.6 0-67.5 15.5-86.8 47.7-13.9-30-40.2-47.7-82.6-47.7-30.2 0-60 15.2-76.4 37l-8.9-45.1-73.2 14.4 8.9 45.4v221.7h71.8V492.9c0-35.4 18.2-66.5 54.7-66.5 38.6 0 46.6 26.3 46.6 61.6v143.7h71.8V490.2c0-35.4 19.3-63.8 54.7-63.8 38.1 0 46.6 26.3 46.6 61.6v149l71.8-14.1v-144c.2-68.6-23.4-120.6-99-120.6M773.5 250.7c-24.7 0-45.4 20.7-45.4 46 0 24.7 20.7 45.4 45.4 45.4 25.3 0 46-20.7 46-45.4 0-25.3-20.7-46-46-46M738.1 363.5h71.8v268.2h-71.8zM1132.6 574.9c-12.9 0-24.1-7.5-24.1-30.6V421.6h74.1l-18.5-57.9h-55.6v-86.6l-71.8 14.1v72.5H943v-86.6l-71.8 14.1v72.5h-39.1v57.9h39.1v123.8c0 60.6 28.9 91.7 82.6 91.7 28.4 0 52-9.6 68.1-20.4l-20.4-53.1c-2.1 1.6-17.2 11.3-34.3 11.3-12.9 0-24.1-7.5-24.1-30.6V421.6h93.6v123.8c0 60.6 28.9 91.7 82.6 91.7 28.4 0 52-9.6 68.1-20.4l-20.4-53.1c-2.2 1.7-17.2 11.3-34.4 11.3M1505.3 363.7 1464 506.8c-5.4 18.8-8 39.5-8 39.5s-2.7-20.8-7-39l-32.7-143.7h-70.8l-32.7 143.7c-4.3 18.2-6.4 39-6.4 39s-3.2-20.8-8.6-39.5l-40.7-143.1h-70.2l85.8 268.6h65.4l35.9-144.7c4.3-18.2 7.5-37.9 7.5-37.9s2.7 19.7 7 37.9l35.9 144.7h64.9l85.8-268.6zM1769.1 396.4c-19.3-25.7-52.5-38.1-83.6-38.1-74 0-121.2 62.2-121.2 139.4s47.2 139.4 121.2 139.4c31.1 0 64.9-11.8 83.6-37.5V637l70.2-13.7V363.7h-70.2zm-65.4 174.2c-38.6 0-66.5-30.6-66.5-72.9 0-41.8 27.9-72.9 66.5-72.9 37 0 63.8 31.1 63.8 72.9 0 42.9-26.8 72.9-63.8 72.9M1875.3 631.7h71.8V276.9l-71.8 14.2zM2177.4 393.2c-19.3-23.1-49.9-35.4-80.9-35.4-74 0-122.2 62.2-122.2 139.4s47.2 139.4 121.2 139.4c32.2 0 66.5-11.8 85.8-37.5v37.7l68.1-14.1v-337h-71.8v107.5zm-63.8 176.9c-38.6 0-66.5-30.6-66.5-72.9 0-41.8 27.9-72.9 66.5-72.9 37 0 63.8 31.1 63.8 72.9 0 42.9-26.9 72.9-63.8 72.9M2285 559.5h71.8v71.8H2285z"/>
</svg>
