<svg xmlns="http://www.w3.org/2000/svg" xml:space="preserve" fill-rule="evenodd" stroke-linejoin="round" stroke-miterlimit="2" clip-rule="evenodd" viewBox="0 0 873 247">
  <path fill="currentColor" d="M796.98 59.818V14.67h30.2v141.11l-28.5 5.93v-15.8c-7.9 10.72-22.29 15.8-35.84 15.8-31.04 0-50.8-25.96-50.8-58.42s20.04-58.42 51.08-58.42c12.985 0 25.68 5.356 33.86 14.948m-26.8 74.232c15.52 0 26.81-12.98 26.81-30.48s-11.29-30.48-26.81-30.48c-16.37 0-27.94 12.7-27.94 30.48s11.85 30.48 27.94 30.48m-588.43 99.92v-19.19c0-4.52-2.26-5.93-5.93-5.93-3.39 0-5.93 1.98-7.34 3.67v21.73h-8.47v-32.17h8.47v4.23c1.98-2.54 5.93-5.08 11.29-5.08 7.06 0 10.44 3.95 10.44 10.16v22.58zm0 0v.28h-.01v-.28zm93.98 0v.28h-.01v-.28zm0 0v-19.19c0-4.52-2.26-5.93-5.93-5.93-3.39 0-5.93 1.98-7.34 3.67v21.73h-8.47v-32.17h8.47v4.23c1.98-2.54 5.93-5.08 11.29-5.08 7.06 0 10.44 3.95 10.44 10.16v22.58zM137.44 45.16v-.02c31.61 0 41.49 21.73 41.49 50.52v59.83l-30.2 5.93V99.05c0-14.67-3.67-25.68-19.47-25.68-14.68 0-22.86 11.85-22.86 26.81v59.27H76.2V99.34c0-14.67-3.38-25.68-19.47-25.68-15.24 0-22.86 12.98-22.86 27.94v58.14H3.67V66.89L0 47.98l30.76-6.21 3.67 18.91c6.77-9.03 19.19-15.52 31.89-15.52 17.78 0 28.78 7.34 34.71 20.04 8.19-13.55 23.71-20.04 36.41-20.04M208.84 0c10.72 0 19.19 9.03 19.19 19.19s-8.47 18.91-19.19 18.91c-10.16 0-18.91-8.47-18.91-18.91S198.4 0 208.84 0m15.53 47.42v112.32h-30.2V47.42zm134.9 88.61-.03-.01c7.34 0 13.55-4.24 14.68-4.8l8.47 22.3c-6.77 4.52-16.65 8.47-28.5 8.47-22.57 0-34.71-12.98-34.71-38.38V71.68h-39.23v51.93c0 9.6 4.8 12.7 10.16 12.7 7.33 0 13.54-4.24 14.39-4.8l8.47 22.3c-6.77 4.52-16.65 8.47-28.5 8.47-22.57 0-34.71-12.98-34.71-38.38V71.97h-16.37V47.7h16.37V17.22l30.2-5.93V47.7h39.23V17.22l30.2-5.93v36.12h23.14l7.62 24.27h-31.04v51.65c0 9.6 4.8 12.7 10.16 12.7m156.07-88.61h29.35l-36.41 112.61h-27.09l-14.96-60.68c-1.69-7.62-2.82-15.8-2.82-15.8s-1.41 8.18-3.1 15.8l-14.96 60.68h-27.38L382.13 47.42h29.35l16.93 59.83c2.26 7.9 3.67 16.65 3.67 16.65s1.13-8.75 2.82-16.37l13.55-59.83h29.63l13.83 60.11c1.69 7.62 2.82 16.37 2.82 16.37s1.13-8.75 3.39-16.65zm110.63 13.82V47.42h29.35v108.94L625.97 162v-15.52c-7.91 10.72-22.02 15.8-35 15.8-31.04 0-50.8-25.96-50.8-58.42s19.76-58.42 50.8-58.42c12.99 0 26.82 5.08 35 15.8m-27.38 72.81c15.52 0 26.53-12.42 26.81-30.48 0-17.5-11.29-30.48-26.81-30.48-16.37 0-27.94 12.7-27.94 30.48s11.85 30.48 27.94 30.48m71.69 25.69V16.94l30.19-5.93v148.73zm201.79-30.2v30.2h-30.2v-30.2zM33.86 234.25v-18.63H12.98v18.63h-9.6v-44.31h9.6v17.5h20.88v-17.5h9.6v44.31zm15.81-16.09c0-9.03 6.49-16.93 16.93-16.93s16.93 7.62 16.93 16.93-6.49 16.93-16.93 16.93-16.93-7.9-16.93-16.93m25.4 0c0-5.08-3.1-9.31-8.18-9.31-5.36 0-8.18 4.23-8.18 9.31s2.82 9.31 8.18 9.31c5.08 0 8.18-4.23 8.18-9.31m15.24 5.93c2.26 2.26 7.06 4.52 11.01 4.52 3.67 0 5.36-1.13 5.36-3.39s-2.82-3.1-6.49-3.67c-5.64-1.13-12.7-2.26-12.7-10.16 0-5.36 4.8-10.16 13.26-10.16 5.36 0 9.88 1.98 12.98 4.52l-3.39 5.93c-1.98-1.98-5.64-3.67-9.6-3.67-3.1 0-5.08 1.13-5.08 3.1s2.54 2.82 6.21 3.39c5.64 1.13 12.98 2.54 12.98 10.44 0 5.93-5.08 10.44-13.83 10.44-5.64 0-11.01-1.98-14.39-5.08l3.67-6.21zm32.74 2.25v-16.65h-5.36v-7.34h5.36v-8.75h8.47v8.75h6.49v7.34h-6.49v14.39c0 1.98 1.13 3.67 2.82 3.67 1.13 0 2.54-.56 2.82-.85l1.69 6.49c-1.13 1.13-3.67 1.98-7.06 1.98-5.64-.28-8.75-3.39-8.75-9.03zm19.75-34.14c0-2.82 2.26-5.08 5.08-5.08s5.08 2.26 5.08 5.08-2.26 5.08-5.08 5.08c-2.54 0-5.08-2.26-5.08-5.08m.85 42.05v-32.17h8.47v32.17zm57.57 2.25c2.54 2.82 5.93 3.95 10.16 3.95s8.75-1.69 8.75-8.18v-3.39c-2.54 3.1-5.93 5.08-9.88 5.08-8.18 0-14.11-5.64-14.11-16.37s5.93-16.37 14.11-16.37c3.95 0 7.34 1.69 9.88 4.8v-4.23h8.47v29.92c0 12.14-9.6 15.24-17.5 15.24-5.64 0-9.88-1.13-13.83-4.8l3.95-5.64zm18.91-23.99c-1.41-2.26-4.52-3.67-7.34-3.67-4.8 0-8.18 3.39-8.18 8.75 0 5.64 3.39 8.75 8.18 8.75 2.82 0 5.93-1.69 7.34-3.67zm86.64-11.28c9.6 0 16.09 7.06 16.09 17.78v1.98h-23.99c.56 3.95 3.67 7.34 9.31 7.34 3.1 0 6.49-1.13 8.47-3.1l3.67 5.36c-3.39 3.1-8.18 4.52-13.26 4.52-9.88 0-17.22-6.49-17.22-16.93.28-9.31 7.06-16.93 16.93-16.93zm-7.9 13.83h15.8c-.28-3.1-2.26-7.06-7.9-7.06s-7.62 3.95-7.9 7.06m51.37 19.19v-3.95c-2.26 2.54-5.93 4.8-11.29 4.8-7.06 0-10.44-3.95-10.44-10.16v-22.86h8.47v19.47c0 4.52 2.26 5.93 5.93 5.93 3.39 0 5.93-1.69 7.34-3.67v-21.73h8.47v32.17zm36.97 2.25c2.54 2.82 5.93 3.95 10.16 3.95 3.95 0 8.75-1.69 8.75-8.18v-3.39c-2.54 3.1-5.93 5.08-9.88 5.08-8.18 0-14.11-5.64-14.11-16.37s5.93-16.37 14.11-16.37c3.95 0 7.34 1.69 9.88 4.8v-4.23h8.47v29.92c0 12.14-9.6 15.24-17.5 15.24-5.64 0-9.88-1.13-13.83-4.8l3.95-5.64zm18.91-23.99c-1.41-2.26-4.52-3.67-7.34-3.67-4.8 0-8.18 3.39-8.18 8.75 0 5.64 3.39 8.75 8.18 8.75 2.82 0 5.93-1.69 7.34-3.67zm31.04-11.28c9.6 0 16.09 7.06 16.09 17.78v1.98h-23.99c.56 3.95 3.67 7.34 9.31 7.34 3.1 0 6.49-1.13 8.47-3.1l3.67 5.36c-3.39 3.1-8.18 4.52-13.26 4.52-9.88 0-17.22-6.49-17.22-16.93.28-9.31 7.06-16.93 16.93-16.93zm-7.9 13.83h15.8c-.28-3.1-2.26-7.06-7.9-7.06s-7.62 3.95-7.9 7.06m51.93 18.92v-3.68c-2.54 3.1-5.93 4.8-9.88 4.8-8.18 0-14.11-6.21-14.11-16.93s5.93-16.93 14.11-16.93c3.67 0 7.34 1.69 9.88 4.8v-16.37h8.47v44.31zm0-21.46c-1.41-2.26-4.52-3.67-7.34-3.67-4.8 0-8.18 3.67-8.18 9.31s3.39 9.31 8.18 9.31c2.82 0 5.93-1.41 7.34-3.67zm35.84 21.73v-3.39c-2.26 2.54-5.93 4.23-10.16 4.23-5.08 0-11.29-3.39-11.29-10.72s5.93-10.16 11.29-10.16c4.23 0 8.18 1.41 10.16 3.95v-4.52c0-3.39-2.82-5.36-7.06-5.36-3.39 0-6.77 1.13-9.31 3.67l-3.1-5.64c3.95-3.39 9.03-5.08 14.11-5.08 7.34 0 14.11 2.82 14.11 12.14v20.88zm0-11.85c-1.41-1.98-3.95-2.82-6.77-2.82-3.39 0-5.93 1.69-5.93 4.8s2.82 4.8 5.93 4.8c2.82 0 5.36-.85 6.77-2.82zm31.33-21.17c6.49 0 10.72 2.82 12.7 5.93l-5.64 5.08c-1.41-2.26-3.95-3.39-6.77-3.39-5.08 0-8.75 3.67-8.75 9.31s3.67 9.31 8.75 9.31c2.82 0 5.36-1.41 6.77-3.39l5.64 5.08c-2.26 3.1-6.21 5.93-12.7 5.93-9.88 0-16.93-7.06-16.93-16.93-.28-9.88 7.06-16.93 16.93-16.93m39.22 33.02v-19.47c0-4.52-2.26-5.93-5.93-5.93-3.39 0-5.93 1.98-7.34 3.67v21.73h-8.47v-44.31h8.47v16.37c1.98-2.54 5.93-5.08 11.29-5.08 7.06 0 10.44 3.95 10.44 10.16v22.86zm17.78-7.91v-16.65H600v-7.34h5.36v-8.75h8.47v8.75h6.49v7.34h-6.49v14.39c0 1.98 1.13 3.67 2.82 3.67 1.13 0 2.54-.56 2.82-.85l1.69 6.49c-1.13 1.13-3.67 1.98-7.06 1.98-5.36-.28-8.75-3.39-8.75-9.03z"/>
</svg>
