<svg xmlns="http://www.w3.org/2000/svg" fill="currentColor" viewBox="0 0 57 40">
  <path fill="currentColor" d="m51.552 39.981-.042.006-.09.012h-.041q-.075.002-.15-.003c-.045-.002-.093 0-.138-.006h-.017l-.014-.003c-.046-.006-.091-.019-.137-.028q-.074-.013-.146-.03l-.038-.01-.086-.033-.04-.015q-.066-.022-.13-.049l-.047-.022-.01-.003c-.026-.013-.046-.03-.07-.043l-.026-.014q-.059-.032-.113-.066l-.045-.031c-.033-.024-.06-.05-.09-.075-.03-.026-.065-.051-.094-.079l-.037-.035c-.03-.029-.053-.062-.078-.093-.022-.027-.05-.053-.07-.082l-.027-.04q-.032-.051-.058-.105l-.011-.02c-.011-.022-.028-.04-.037-.062l-.01-.027c-1.005-2.24-2.304-4.188-3.792-5.764a18.2 18.2 0 0 0-4.88-3.692c-.521-.27-.43-.907.196-1.496.623-.585 1.582-.854 2.159-.527a21.2 21.2 0 0 1 5.953 4.996c-.41-2.428-1.21-4.784-2.323-6.993-1.118-2.21-2.545-4.273-4.194-6.157-3.304-3.776-7.44-6.844-11.906-9.273-4.475-2.425-9.304-4.234-14.27-5.403C11.644 3.558 6.514 3.01 1.5 3.417c-.71.058-1.371-.6-1.484-1.5C-.098 1.019.445.209 1.229.144c5.453-.439 10.88.152 16.122 1.374 5.245 1.237 10.327 3.14 15.081 5.713 4.74 2.58 9.18 5.855 12.809 9.997 1.809 2.067 3.399 4.357 4.654 6.839 1.25 2.482 2.162 5.16 2.63 7.922.904-2.93 1.303-6.213 1.153-9.608-.038-.9.62-1.707 1.534-1.755.91-.047 1.732.748 1.765 1.732.117 3.215-.217 6.352-.972 9.222a27.5 27.5 0 0 1-3.339 7.724l-.016.028q-.024.031-.047.06l-.015.02c-.026.035-.047.07-.077.1l-.036.04q-.044.039-.086.072c-.033.028-.062.057-.097.083l-.043.03c-.035.023-.073.04-.11.061q-.05.03-.104.057l-.05.022q-.061.024-.127.042l-.029.01c-.027.006-.049.02-.076.027h-.011l-.051.012c-.046.01-.091.013-.137.019z"/>
</svg>
