<svg fill="currentColor" xmlns="http://www.w3.org/2000/svg" xml:space="preserve" fill-rule="evenodd" stroke-linejoin="round" stroke-miterlimit="2" clip-rule="evenodd" viewBox="0 0 167 98">
<path d="M111 42.21a4.12 4.12 0 0 0 1.68-3.55 3.27 3.27 0 0 0-.94-2.63 11 11 0 0 0-3.75-2.06l-5.63-2.06c-4.88-1.88-7.32-5.07-7.32-9.38a8.37 8.37 0 0 1 3.38-6.94 14.5 14.5 0 0 1 8.82-2.63c2.876.042 5.726.549 8.44 1.5.463.085.872.356 1.13.75.236.397.367.848.38 1.31v1.88c0 .75-.38 1.13-.94 1.13-.19 0-.75-.19-1.5-.38a22.7 22.7 0 0 0-7.13-1.13c-4.32 0-6.38 1.5-6.38 4.31a3.54 3.54 0 0 0 1.13 2.81c.57.75 2.07 1.5 4.13 2.25l5.24 2.08a13.24 13.24 0 0 1 5.63 3.56 8.56 8.56 0 0 1 1.69 5.44 8.84 8.84 0 0 1-3.56 7.5 14.7 14.7 0 0 1-9.38 2.81A25 25 0 0 1 96 46.9a2.9 2.9 0 0 1-1.13-.75 2.7 2.7 0 0 1-.38-1.31v-1.88c0-.75.19-1.13.75-1.13a9.5 9.5 0 0 1 1.69.38 30.3 30.3 0 0 0 9.19 1.31 8.87 8.87 0 0 0 4.88-1.31M81.5 15.2c0-.75.42-1.31 1.52-1.3h3.94c.93 0 1.31.37 1.31 1.31v31c0 .93-.37 1.31-1.31 1.31h-2.81c-.57 0-.94 0-1.13-.19a.87.87 0 0 1-.56-.94l-.38-2.25a21.6 21.6 0 0 1-12.76 4.5A9.94 9.94 0 0 1 62 46.01c-1.69-1.68-2.44-4.31-2.44-7.5V15.25c0-.93.37-1.31 1.31-1.31h3.94c.93 0 1.31.37 1.31 1.31v21.2c0 2.44.37 4.12 1.31 5.25a5.54 5.54 0 0 0 4.5 1.69 17.66 17.66 0 0 0 9.57-3.19zM45.9 47.65c-.94 0-1.31-.37-1.27-1.31V24.77a8.4 8.4 0 0 0-1.31-4.88q-1.13-1.69-3.94-1.69c-3.471.06-6.855 1.1-9.76 3v25.14c0 .93-.37 1.31-1.31 1.31h-3.94c-.93 0-1.31-.37-1.31-1.31V24.77a8.4 8.4 0 0 0-1.31-4.88q-1.13-1.69-3.94-1.69a19.1 19.1 0 0 0-9.76 3v25.32c0 .93-.37 1.31-1.31 1.31H2.8c-.93 0-1.31-.37-1.31-1.31V15.38c0-.93.37-1.31 1.31-1.31h3c.326-.048.659.019.94.19a.87.87 0 0 1 .56.94l.38 2.06c4.13-2.81 8.25-4.31 12.38-4.31s6.94 1.5 8.44 4.69a22.1 22.1 0 0 1 13.08-4.7 9.5 9.5 0 0 1 7.13 2.63c1.69 1.69 2.44 4.13 2.44 7.32v23.45c0 .93-.37 1.31-1.31 1.31zm102.25 24.96c3.18-1.32 5.81 2.06 2.66 4.3-18.2 13.51-44.65 20.64-67.54 20.64A122.33 122.33 0 0 1 .72 66.03c-1.31-1.31-.56-2.81.75-2.81.4.04.787.17 1.13.38 23.45 13.7 52.55 21.95 82.55 21.95a165.5 165.5 0 0 0 63-12.94m-.57-51.22c-1.69 1.88-2.44 4.88-2.62 9.01v.94c0 3.94.75 6.94 2.44 8.82q2.53 2.81 7.88 2.81a23.5 23.5 0 0 0 6-.94c.293-.139.616-.204.94-.19.56 0 .94.37.94 1.31v1.88c0 .56 0 1.12-.19 1.31a1.72 1.72 0 0 1-1.13.75 18.5 18.5 0 0 1-7.5 1.31c-5.25 0-9.18-1.5-12-4.5s-4.13-7.31-4.13-12.94 1.5-10.13 4.31-13.13c3-3.19 6.94-4.69 12.19-4.69 2.411.115 4.802.494 7.13 1.13.349.202.665.455.94.75.263.385.396.844.38 1.31v1.88c0 .93-.38 1.31-.94 1.31a2.8 2.8 0 0 1-1.13-.19 17.4 17.4 0 0 0-5.44-.75c-3.76 0-6.38.93-8.07 2.81m8.44 68.85c-1.68 1.13-3 .54-2.43-1.17 2.25-5.44 7.13-17.82 4.88-20.82-2.44-3-15.57-1.5-21.39-.75-1.69.19-2.07-1.31-.38-2.44 5.44-3.76 12.57-5.07 18.57-5.07 5.63 0 10.13 1.12 11.07 2.25 2.06 2.67-.56 19.75-10.32 28m-26.07-76.35a1.195 1.195 0 0 1 1.31 1.31v31.14c0 .93-.37 1.31-1.31 1.31h-3.94c-.93 0-1.31-.37-1.31-1.31V15.2c0-.93.37-1.31 1.31-1.31zm1.12-12.76c.72.747 1.065 1.78.94 2.81a3.82 3.82 0 0 1-1.13 2.81 4.586 4.586 0 0 1-6 0 3.54 3.54 0 0 1-1.13-2.81 3.82 3.82 0 0 1 1.13-2.81 4 4 0 0 1 3-1.13 4.4 4.4 0 0 1 3.19 1.13"/>
</svg>
